<?xml version="1.0" encoding="UTF-8" standalone="no"?>
<svg
   version="1.1"
   width="400"
   height="400"
   id="svg423"
   sodipodi:docname="iiif_bw.svg"
   inkscape:version="1.2.2 (b0a8486541, 2022-12-01)"
   xmlns:inkscape="http://www.inkscape.org/namespaces/inkscape"
   xmlns:sodipodi="http://sodipodi.sourceforge.net/DTD/sodipodi-0.dtd"
   xmlns="http://www.w3.org/2000/svg"
   xmlns:svg="http://www.w3.org/2000/svg">
  <defs
     id="defs427" />
  <sodipodi:namedview
     id="namedview425"
     pagecolor="#000000"
     bordercolor="#000000"
     borderopacity="0"
     inkscape:showpageshadow="0"
     inkscape:pageopacity="0.0"
     inkscape:pagecheckerboard="0"
     inkscape:deskcolor="#d1d1d1"
     showgrid="false"
     inkscape:zoom="0.59"
     inkscape:cx="2.5423729"
     inkscape:cy="202.54237"
     inkscape:window-width="1854"
     inkscape:window-height="1131"
     inkscape:window-x="66"
     inkscape:window-y="32"
     inkscape:window-maximized="1"
     inkscape:current-layer="svg423" />
  <path
     d="M0 0 C1.62742882 0.00459984 1.62742882 0.00459984 3.28773499 0.0092926 C4.11695969 0.01323532 4.94618439 0.01717804 5.80053711 0.02124023 C5.82368363 7.54895181 5.84146402 15.0766597 5.85234928 22.60439873 C5.85757304 26.09964121 5.86466151 29.59485939 5.87597656 33.09008789 C5.88889685 37.10620358 5.89376951 41.12229364 5.89819336 45.13842773 C5.90335464 46.39678436 5.90851593 47.65514099 5.91383362 48.95162964 C5.91390915 50.11268219 5.91398468 51.27373474 5.9140625 52.4699707 C5.91628311 53.49589325 5.91850372 54.5218158 5.92079163 55.5788269 C5.80053711 58.02124023 5.80053711 58.02124023 4.80053711 60.02124023 C3.93170898 59.89104492 3.06288086 59.76084961 2.16772461 59.62670898 C-5.23269374 58.42546726 -5.23269374 58.42546726 -11.88696289 61.02124023 C-17.39903444 68.17203575 -16.61440882 76.78963354 -16.82446289 85.45874023 C-16.86313477 86.76262695 -16.90180664 88.06651367 -16.94165039 89.40991211 C-17.0355299 92.61355023 -17.12121443 95.81718855 -17.19946289 99.02124023 C-16.64484375 98.80395264 -16.09022461 98.58666504 -15.51879883 98.36279297 C-12.99996394 97.38333386 -10.47494725 96.42091679 -7.94946289 95.45874023 C-7.07676758 95.11649414 -6.20407227 94.77424805 -5.30493164 94.42163086 C-4.4605957 94.10258789 -3.61625977 93.78354492 -2.74633789 93.45483398 C-1.97128906 93.15633545 -1.19624023 92.85783691 -0.39770508 92.55029297 C1.80053711 92.02124023 1.80053711 92.02124023 5.80053711 93.02124023 C5.80053711 109.85124023 5.80053711 126.68124023 5.80053711 144.02124023 C-4.51653606 148.60660609 -4.51653606 148.60660609 -9.07446289 150.27124023 C-9.97938477 150.60639648 -10.88430664 150.94155273 -11.81665039 151.28686523 C-14.19946289 152.02124023 -14.19946289 152.02124023 -17.19946289 152.02124023 C-17.19946289 191.29124023 -17.19946289 230.56124023 -17.19946289 271.02124023 C-22.14946289 272.67124023 -27.09946289 274.32124023 -32.19946289 276.02124023 C-34.69312842 276.90065025 -37.18306234 277.79096502 -39.66430664 278.70483398 C-41.5014624 279.38002075 -41.5014624 279.38002075 -43.37573242 280.06884766 C-44.29929535 280.41017227 -44.29929535 280.41017227 -45.24151611 280.75839233 C-47.18865679 281.47784059 -49.13706116 282.19378198 -51.08569336 282.90917969 C-56.58717379 284.93163234 -62.08368591 286.96486086 -67.55493164 289.06811523 C-68.29686768 289.35243408 -69.03880371 289.63675293 -69.80322266 289.9296875 C-71.65920185 290.64504317 -73.51155189 291.36979608 -75.36352539 292.09545898 C-78.19946289 293.02124023 -78.19946289 293.02124023 -82.19946289 293.02124023 C-82.269688 265.67349446 -82.32251708 238.3257623 -82.35489941 210.97794437 C-82.37033781 198.27855977 -82.39136926 185.57923135 -82.42578125 172.87988281 C-82.45577648 161.80516519 -82.47505986 150.73048827 -82.48172837 139.65573114 C-82.48562352 133.79716508 -82.49471408 127.93871543 -82.51665306 122.08018684 C-82.53717843 116.55380728 -82.54326457 111.0275909 -82.53878593 105.50117683 C-82.53960401 103.48454905 -82.54547319 101.4679152 -82.55707932 99.45132065 C-82.70613987 72.18966858 -77.77626206 45.34382223 -58.19946289 25.02124023 C-42.97652367 10.32474272 -21.41190207 -0.07840547 0 0 Z "
     fill="#EA2025"
     transform="translate(359.199462890625,53.978759765625)"
     id="path409"
     style="fill:#FFFFFF" />
  <path
     d="M0 0 C3.53178538 0.51667787 6.76505698 1.53732094 10.11328125 2.75 C11.10247559 3.10682861 12.09166992 3.46365723 13.11083984 3.83129883 C14.1673877 4.21697021 15.22393555 4.6026416 16.3125 5 C17.41029785 5.39791748 18.5080957 5.79583496 19.63916016 6.20581055 C29.30373884 9.72014007 38.93414888 13.3241595 48.5546875 16.95703125 C54.02266437 19.00850321 59.51146896 21.00417053 65 23 C65 79.1 65 135.2 65 193 C60.3192274 192.3313182 57.12104078 191.87345639 52.90234375 190.3203125 C51.9498877 189.97355469 50.99743164 189.62679687 50.01611328 189.26953125 C49.0001709 188.89183594 47.98422852 188.51414062 46.9375 188.125 C45.86999512 187.73441406 44.80249023 187.34382812 43.70263672 186.94140625 C41.38348752 186.09190593 39.06549817 185.2392341 36.74853516 184.38378906 C32.76567863 182.91349918 28.77976197 181.45175826 24.79296875 179.9921875 C20.74909579 178.51150759 16.7054515 177.03024182 12.66381836 175.54345703 C11.44702393 175.09599121 10.23022949 174.64852539 8.9765625 174.1875 C7.35355225 173.59001953 7.35355225 173.59001953 5.69775391 172.98046875 C3.80798041 172.29365152 1.90752866 171.63584289 0 171 C-1.44466375 168.11067249 -1.1259983 165.61787061 -1.12698364 162.38829041 C-1.12854363 161.70125032 -1.13010362 161.01421024 -1.13171089 160.30635077 C-1.13571477 157.99319345 -1.13253362 155.68010122 -1.12939453 153.36694336 C-1.13074883 151.71311911 -1.13252892 150.05929517 -1.13470459 148.4054718 C-1.13927516 143.90565911 -1.13749099 139.40586927 -1.1343255 134.90605617 C-1.13180039 130.2059706 -1.13413983 125.50588703 -1.13571167 120.80580139 C-1.13753274 112.912767 -1.1351285 105.01974196 -1.13037109 97.12670898 C-1.12492671 87.98809655 -1.12669266 78.84950642 -1.1321975 69.71089453 C-1.13672816 61.87735583 -1.13737947 54.04382387 -1.13475883 46.21028429 C-1.13319604 41.526024 -1.13300239 36.8417742 -1.13629532 32.15751457 C-1.13917341 27.75565351 -1.1371995 23.35382135 -1.13140106 18.95196342 C-1.13007321 17.33176217 -1.130468 15.7115585 -1.13266373 14.09135818 C-1.13537421 11.88911404 -1.13199542 9.68696401 -1.12698364 7.48472595 C-1.12660662 6.24935561 -1.12622959 5.01398527 -1.12584114 3.74117947 C-1 1 -1 1 0 0 Z "
     fill="#0E7BA6"
     transform="translate(201,153)"
     id="path411"
     style="fill:#FFFFFF" />
  <path
     d="M0 0 C0 56.1 0 112.2 0 170 C-10.76768694 174.61472298 -21.46543109 178.89600112 -32.609375 182.5 C-39.44904612 184.77770866 -46.16022158 187.43944551 -52.87670898 190.05395508 C-53.87001221 190.43447021 -54.86331543 190.81498535 -55.88671875 191.20703125 C-56.77576904 191.5522583 -57.66481934 191.89748535 -58.58081055 192.25317383 C-61 193 -61 193 -65 193 C-65 136.9 -65 80.8 -65 23 C-53.76945127 18.50778051 -53.76945127 18.50778051 -48.19921875 16.484375 C-46.98411621 16.04134033 -45.76901367 15.59830566 -44.51708984 15.1418457 C-43.24058132 14.6778382 -41.96405096 14.21389076 -40.6875 13.75 C-33.27542056 11.05271294 -25.86633998 8.35513345 -18.51171875 5.50390625 C-17.54983643 5.13104492 -16.5879541 4.75818359 -15.59692383 4.37402344 C-13.82751686 3.68397218 -12.0602842 2.9883102 -10.2956543 2.28613281 C-9.51488525 1.9815918 -8.73411621 1.67705078 -7.9296875 1.36328125 C-7.26179199 1.09813721 -6.59389648 0.83299316 -5.90576172 0.55981445 C-4 0 -4 0 0 0 Z "
     fill="#EA2025"
     transform="translate(187,153)"
     id="path413"
     style="fill:#FFFFFF" />
  <path
     d="M0 0 C6.7479953 1.12466588 6.7479953 1.12466588 9.79296875 2.27734375 C10.84170166 2.66913818 10.84170166 2.66913818 11.91162109 3.06884766 C12.66266113 3.35550293 13.41370117 3.6421582 14.1875 3.9375 C15.87102262 4.5692 17.55462104 5.20069803 19.23828125 5.83203125 C20.15303223 6.1770166 21.0677832 6.52200195 22.01025391 6.87744141 C25.26702287 8.10025895 28.52928647 9.30747725 31.79296875 10.51171875 C32.96512939 10.94427979 34.13729004 11.37684082 35.3449707 11.82250977 C37.09233521 12.46724243 37.09233521 12.46724243 38.875 13.125 C47.61104266 16.34864374 56.30786218 19.65687007 65 23 C65 79.1 65 135.2 65 193 C59.85420319 192.26488617 56.22635759 191.5511244 51.5 189.8125 C50.27539062 189.36261719 49.05078125 188.91273438 47.7890625 188.44921875 C43.51154582 186.83007674 39.27838708 185.10351731 35.04248047 183.37890625 C23.55230765 178.75333732 11.74547844 174.91515948 0 171 C0 114.57 0 58.14 0 0 Z "
     fill="#0E7BA6"
     transform="translate(42,153)"
     id="path415"
     style="fill:#FFFFFF" />
  <path
     d="M0 0 C5.70589312 5.09778206 8.61402023 10.82570022 9.31640625 18.421875 C9.84775528 35.21936033 3.20127604 48.78411562 -8 61 C-18.59819469 71.00501215 -30.4648109 75.53130833 -44.8125 75.2734375 C-51.60523856 74.970939 -55.65457109 72.65044548 -60.3125 67.8125 C-66.32477049 60.06371541 -66.79382943 51.52595321 -66 42 C-64.44839446 30.98499853 -59.34967068 21.31554116 -52 13 C-51.34 13 -50.68 13 -50 13 C-49.75121094 12.41089844 -49.50242188 11.82179688 -49.24609375 11.21484375 C-44.71032809 3.15284021 -33.86471766 -1.2084981 -25.4296875 -3.78515625 C-16.52979174 -5.89155791 -7.62510382 -5.411364 0 0 Z "
     fill="#EA2025"
     transform="translate(183,78)"
     id="path417"
     style="fill:#FFFFFF" />
  <path
     d="M0 0 C14.55521945 8.63134692 24.53016372 21.39497906 29.29296875 37.59375 C31.65934514 47.05925557 31.07787737 56.9969086 26.29296875 65.59375 C22.29497998 70.24276825 17.64569888 74.10028954 11.36987305 74.81176758 C-3.89004137 75.64828315 -13.87699795 72.62506478 -25.70703125 62.59375 C-36.57909366 52.1319541 -44.55480329 39.52195245 -45.18017578 24.14624023 C-45.28042052 15.78491792 -44.66056759 8.94263998 -38.87109375 2.57421875 C-28.15960583 -7.50114632 -12.49297387 -6.48985656 0 0 Z "
     fill="#0E7BA6"
     transform="translate(240.70703125,78.40625)"
     id="path419"
     style="fill:#FFFFFF" />
  <path
     d="M0 0 C11.36591132 8.6641783 21.22293607 22.27821292 23.40625 36.6796875 C24.31352617 44.78331329 24.11942039 51.91815333 20.3125 59.25 C15.12505752 65.41885051 10.33268055 69.46553385 2.13671875 70.4765625 C-11.76402794 71.16650368 -22.15492451 67.06168323 -32.9375 58.3125 C-38.19183768 53.17872074 -42.20321889 47.24229002 -46 41 C-46.55300781 40.11054687 -47.10601562 39.22109375 -47.67578125 38.3046875 C-51.1809407 31.53133712 -51.53518447 24.80263112 -51.6875 17.3125 C-51.7191626 16.33812988 -51.7508252 15.36375977 -51.78344727 14.35986328 C-51.71864925 5.79633165 -48.53228419 0.53228419 -42.5625 -5.4375 C-28.93535715 -13.74673345 -12.09003339 -8.5171002 0 0 Z "
     fill="#0E7BA6"
     transform="translate(89,83)"
     id="path421"
     style="fill:#FFFFFF" />
</svg>
